# wavefront obj file written by the visualization toolkit

mtllib temp_frame0001.mtl

v -3.46945e-018 -3.46945e-018 -0.0438975
v 0.0526316 -3.46945e-018 -0.0311129
v -3.46945e-018 0.0199124 2.22045e-016
v 0.074227 -3.46945e-018 2.22045e-016
v 0.0526316 0.0121982 2.22045e-016
v -3.46945e-018 -3.46945e-018 -0.079859
v 0.0526316 -3.46945e-018 -0.074879
v -3.46945e-018 0.0181814 -0.0555556
v 0.0854315 -3.46945e-018 -0.0555556
v 0.0526316 0.0137037 -0.0555556
v 0.105263 -3.46945e-018 -0.0195027
v -3.46945e-018 0.0398248 2.22045e-016
v 0.0526316 0.0335918 2.22045e-016
v 0.113955 -3.46945e-018 2.22045e-016
v 0.105263 0.00563874 2.22045e-016
v 0.0526316 0.157895 -0.123816
v -3.46945e-018 0.210526 -0.127983
v 0.0526316 0.210526 -0.145338
v 0.105263 0.210526 -0.126139
v -3.46945e-018 0.263158 -0.122766
v 0.0526316 0.263158 -0.143432
v 0.105263 0.263158 -0.1217
v 0.0526316 0.315789 -0.130907
v 0.0526316 0.368421 -0.114349
v 0.0526316 0.148376 -0.111111
v 0.0124426 0.157895 -0.111111
v -3.46945e-018 0.167328 -0.111111
v -3.46945e-018 0.157895 -0.106963
v 0.0834805 0.157895 -0.111111
v 0.105263 0.179926 -0.111111
v 0.105263 0.157895 -0.0937875
v 0.119904 0.210526 -0.111111
v -3.46945e-018 0.302551 -0.111111
v 0.114557 0.263158 -0.111111
v 0.105263 0.294052 -0.111111
v 0.00955142 0.315789 -0.111111
v -3.46945e-018 0.315789 -0.106521
v 0.0925479 0.315789 -0.111111
v 0.105263 0.315789 -0.0938831
v 0.0460812 0.368421 -0.111111
v -3.46945e-018 0.368421 -0.0867706
v 0.058992 0.368421 -0.111111
v 0.0526316 0.377383 -0.111111
v -3.46945e-018 0.421053 -0.060762
v 0.0526316 0.421053 -0.0880748
v -3.46945e-018 0.129423 -0.0555556
v 0.0526316 0.12339 -0.0555556
v 0.105263 0.143906 -0.0555556
v 0.123851 0.157895 -0.0555556
v 0.140044 0.210526 -0.0555556
v 0.131576 0.263158 -0.0555556
v 0.116348 0.315789 -0.0555556
v 0.105263 0.356581 -0.0555556
v 0.105263 0.315789 -0.0308288
v 0.100702 0.368421 -0.0555556
v -3.46945e-018 0.42933 -0.0555556
v -3.46945e-018 0.421053 -0.0337706
v 0.0781471 0.421053 -0.0555556
v 0.0526316 0.4634 -0.0555556
v -3.46945e-018 0.127266 2.22045e-016
v 0.0526316 0.127093 2.22045e-016
v 0.105263 0.157107 2.22045e-016
v 0.106223 0.157895 2.22045e-016
v 0.121407 0.210526 2.22045e-016
v 0.109217 0.263158 2.22045e-016
v 0.105263 0.275651 2.22045e-016
v 0.0914348 0.315789 2.22045e-016
v -3.46945e-018 0.409106 2.22045e-016
v 0.0744786 0.368421 2.22045e-016
v 0.0496615 0.421053 2.22045e-016
v 0.0529957 0.421053 2.22045e-016
v 0.0526316 0.421785 2.22045e-016
v -3.46945e-018 -3.46945e-018 -0.079859
v 0.0526316 -3.46945e-018 -0.074879
v -3.46945e-018 0.0181814 -0.0555556
v 0.0854315 -3.46945e-018 -0.0555556
v 0.0526316 0.0137037 -0.0555556
v 0.105263 -3.46945e-018 -0.0195027
v -3.46945e-018 0.0398248 2.22045e-016
v 0.0526316 0.0335918 2.22045e-016
v 0.113955 -3.46945e-018 2.22045e-016
v 0.105263 0.00563874 2.22045e-016
v 0.0526316 0.368421 -0.114349
v 0.0526316 0.377383 -0.111111
v 0.0526316 0.421053 -0.0880748
v 0.100702 0.368421 -0.0555556
v -3.46945e-018 0.42933 -0.0555556
v 0.0781471 0.421053 -0.0555556
v 0.0526316 0.4634 -0.0555556
v 0.0526316 0.4634 -0.0555556
v 0.0526316 0.4634 -0.0555556
v 0.0526316 0.421785 2.22045e-016
vn -0.0998436 -0.906136 0.411034
vn -0.237112 -0.89789 0.370907
vn -0.117582 -0.914748 0.386538
vn -0.465442 -0.824011 0.323063
vn -0.304941 -0.886661 0.347626
vn -0.0565884 -0.799446 0.598067
vn -0.150656 -0.801427 0.578807
vn -0.079589 -0.877757 0.472449
vn -0.355937 -0.85194 0.384066
vn -0.289955 -0.878586 0.379491
vn -0.437703 -0.86836 0.233166
vn -0.109683 -0.926165 0.360817
vn -0.215533 -0.916177 0.337884
vn -0.528927 -0.815275 0.235717
vn -0.460695 -0.847281 0.26434
vn 0.0811675 -0.522211 -0.848945
vn -0.310266 -0.192111 -0.931036
vn 0.0946473 -0.123976 -0.987761
vn 0.556296 -0.15497 -0.816407
vn -0.373537 0.19007 -0.907934
vn -0.0600278 0.126845 -0.990105
vn 0.511168 0.170332 -0.842433
vn 0.0149382 0.283397 -0.958886
vn -0.415581 0.292363 -0.861287
vn 0.0265597 -0.869184 -0.493774
vn -0.252096 -0.554762 -0.792898
vn -0.278973 -0.367963 -0.887004
vn -0.233779 -0.708716 -0.665634
vn 0.351689 -0.729598 -0.586516
vn 0.56038 -0.408524 -0.720474
vn 0.634376 -0.622443 -0.458401
vn 0.839809 -0.203869 -0.503149
vn -0.403365 0.28245 -0.870355
vn 0.867275 0.166823 -0.469045
vn 0.791283 0.2958 -0.535139
vn -0.415596 0.297469 -0.85953
vn -0.411933 0.309366 -0.85709
vn 0.598612 0.369787 -0.710578
vn 0.850917 0.341072 -0.399513
vn -0.452167 0.343102 -0.823302
vn -0.426334 0.359737 -0.829957
vn 0.578614 0.353525 -0.735001
vn -0.481743 0.352125 -0.802454
vn -0.412472 0.445096 -0.794831
vn -0.433001 0.453131 -0.77922
vn -0.106752 -0.969424 -0.220955
vn 0.20746 -0.973369 -0.0975359
vn 0.418167 -0.893742 -0.162366
vn 0.806926 -0.587406 -0.0618414
vn 0.997047 -0.0763753 -0.00803536
vn 0.970747 0.218892 0.0986697
vn 0.962012 0.272956 0.00536324
vn 0.945333 0.298471 0.131377
vn 0.880594 0.271448 0.388421
vn 0.770511 0.393609 -0.501382
vn -0.384909 0.527636 -0.757262
vn -0.227095 0.914716 0.33425
vn 0.713368 0.378278 -0.589926
vn -0.366787 0.566608 -0.73785
vn -0.00328257 -0.999242 -0.0388014
vn 0.130943 -0.990951 0.0295015
vn 0.520345 -0.837662 0.16602
vn 0.848948 -0.451209 0.275134
vn 0.941121 0.0331005 0.336444
vn 0.891187 0.261332 0.370798
vn 0.87904 0.290398 0.378096
vn 0.865745 0.285832 0.410835
vn -0.221168 0.919404 0.32524
vn 0.855734 0.33011 0.39843
vn -0.223524 0.9176 0.328704
vn 0.835832 0.418253 0.355595
vn -0.311274 0.857675 0.40927
vn -0.0565884 -0.799446 0.598067
vn -0.150656 -0.801427 0.578807
vn -0.079589 -0.877757 0.472449
vn -0.355937 -0.85194 0.384066
vn -0.289955 -0.878586 0.379491
vn -0.437703 -0.86836 0.233166
vn -0.109683 -0.926165 0.360817
vn -0.215533 -0.916177 0.337884
vn -0.528927 -0.815275 0.235717
vn -0.460695 -0.847281 0.26434
vn 0.434378 0.288272 -0.853355
vn 0.613012 0.360022 -0.703279
vn 0.730983 0.369738 -0.573548
vn 0.84983 0.321298 0.4178
vn -0.352679 0.822705 0.44584
vn 0.833718 0.397891 0.38288
vn 0.710906 0.428341 -0.557796
vn -0.460026 0.710643 0.532319
vn 0.824876 0.452187 0.339273
vn 0.849485 0.42228 0.316316

g grp1
usemtl mtl1
f 2//2 3//3 1//1 
f 5//5 3//3 2//2 
f 4//4 5//5 2//2 
f 7//7 8//8 6//6 
f 10//10 8//8 7//7 
f 9//9 10//10 7//7 
f 10//10 13//13 8//8 
f 8//8 13//13 12//12 
f 11//11 10//10 9//9 
f 11//11 15//15 10//10 
f 15//15 13//13 10//10 
f 14//14 15//15 11//11 
f 16//16 25//25 26//26 
f 25//25 16//16 29//29 
f 26//26 27//27 17//17 
f 26//26 17//17 16//16 
f 16//16 17//17 18//18 
f 30//30 29//29 16//16 
f 30//30 16//16 19//19 
f 19//19 16//16 18//18 
f 30//30 19//19 32//32 
f 18//18 17//17 21//21 
f 21//21 17//17 20//20 
f 19//19 18//18 22//22 
f 22//22 18//18 21//21 
f 34//34 32//32 19//19 
f 22//22 34//34 19//19 
f 33//33 36//36 23//23 
f 33//33 23//23 20//20 
f 20//20 23//23 21//21 
f 38//38 35//35 22//22 
f 38//38 22//22 23//23 
f 23//23 22//22 21//21 
f 34//34 22//22 35//35 
f 24//24 23//23 36//36 
f 40//40 24//24 36//36 
f 42//42 38//38 23//23 
f 83//83 42//42 23//23 
f 24//24 40//40 43//43 
f 42//42 83//83 84//84 
f 28//28 26//26 25//25 
f 28//28 25//25 46//46 
f 46//46 25//25 47//47 
f 29//29 31//31 48//48 
f 29//29 48//48 25//25 
f 25//25 48//48 47//47 
f 48//48 31//31 49//49 
f 26//26 28//28 27//27 
f 29//29 30//30 31//31 
f 31//31 30//30 32//32 
f 31//31 32//32 49//49 
f 49//49 32//32 50//50 
f 32//32 34//34 50//50 
f 50//50 34//34 51//51 
f 33//33 37//37 36//36 
f 35//35 38//38 39//39 
f 35//35 39//39 52//52 
f 35//35 52//52 34//34 
f 34//34 52//52 51//51 
f 36//36 41//41 40//40 
f 37//37 41//41 36//36 
f 39//39 55//55 53//53 
f 39//39 38//38 55//55 
f 38//38 42//42 55//55 
f 52//52 39//39 53//53 
f 40//40 45//45 43//43 
f 40//40 41//41 45//45 
f 41//41 44//44 45//45 
f 84//84 85//85 58//58 
f 84//84 58//58 42//42 
f 42//42 58//58 55//55 
f 45//45 44//44 56//56 
f 59//59 45//45 56//56 
f 58//58 85//85 89//89 
f 47//47 61//61 46//46 
f 46//46 61//61 60//60 
f 48//48 62//62 47//47 
f 47//47 62//62 61//61 
f 62//62 48//48 49//49 
f 63//63 62//62 49//49 
f 49//49 50//50 63//63 
f 63//63 50//50 64//64 
f 50//50 51//51 64//64 
f 64//64 51//51 65//65 
f 54//54 67//67 66//66 
f 54//54 66//66 65//65 
f 54//54 65//65 52//52 
f 52//52 65//65 51//51 
f 53//53 67//67 54//54 
f 53//53 86//86 67//67 
f 86//86 69//69 67//67 
f 52//52 53//53 54//54 
f 68//68 70//70 57//57 
f 86//86 88//88 69//69 
f 69//69 88//88 71//71 
f 57//57 70//70 72//72 
f 57//57 72//72 87//87 
f 87//87 72//72 90//90 
f 71//71 88//88 91//91 
f 92//92 71//71 91//91 
f 74//74 75//75 73//73 
f 77//77 75//75 74//74 
f 76//76 77//77 74//74 
f 77//77 80//80 75//75 
f 75//75 80//80 79//79 
f 78//78 77//77 76//76 
f 78//78 82//82 77//77 
f 82//82 80//80 77//77 
f 81//81 82//82 78//78 
v 0.0454545 0.136392 0.000705639
v 0.0454545 0.136392 0.0001
v 0.0454348 0.136383 0.000705639
v 0.0454348 0.136383 0.0001
v 0.0454266 0.136364 0.000705639
v 0.0454266 0.136364 0.0001
v 0.0454348 0.136344 0.000705639
v 0.0454348 0.136344 0.0001
v 0.0454545 0.136336 0.000705639
v 0.0454545 0.136336 0.0001
v 0.0454743 0.136344 0.000705639
v 0.0454743 0.136344 0.0001
v 0.0454825 0.136364 0.000705639
v 0.0454825 0.136364 0.0001
v 0.0454743 0.136383 0.000705639
v 0.0454743 0.136383 0.0001
v 0.0454545 0.136392 0.000705639
v 0.0454348 0.136383 0.000705639
v 0.0454266 0.136364 0.000705639
v 0.0454348 0.136344 0.000705639
v 0.0454545 0.136336 0.000705639
v 0.0454743 0.136344 0.000705639
v 0.0454825 0.136364 0.000705639
v 0.0454743 0.136383 0.000705639
v 0.0454743 0.136383 0.0001
v 0.0454825 0.136364 0.0001
v 0.0454743 0.136344 0.0001
v 0.0454545 0.136336 0.0001
v 0.0454348 0.136344 0.0001
v 0.0454266 0.136364 0.0001
v 0.0454348 0.136383 0.0001
v 0.0454545 0.136392 0.0001
v 0.0454545 0.136364 0.00103175
v 0.0454545 0.13627 0.000705639
v 0.0455204 0.136298 0.000705639
v 0.0455477 0.136364 0.000705639
v 0.0455204 0.13643 0.000705639
v 0.0454545 0.136457 0.000705639
v 0.0453887 0.13643 0.000705639
v 0.0453614 0.136364 0.000705639
v 0.0453887 0.136298 0.000705639
v 0.0454545 0.227333 0.00140424
v 0.0454545 0.227333 0.0001
v 0.045412 0.227315 0.00140424
v 0.045412 0.227315 0.0001
v 0.0453943 0.227273 0.00140424
v 0.0453943 0.227273 0.0001
v 0.045412 0.22723 0.00140424
v 0.045412 0.22723 0.0001
v 0.0454545 0.227213 0.00140424
v 0.0454545 0.227213 0.0001
v 0.0454971 0.22723 0.00140424
v 0.0454971 0.22723 0.0001
v 0.0455147 0.227273 0.00140424
v 0.0455147 0.227273 0.0001
v 0.0454971 0.227315 0.00140424
v 0.0454971 0.227315 0.0001
v 0.0454545 0.227333 0.00140424
v 0.045412 0.227315 0.00140424
v 0.0453943 0.227273 0.00140424
v 0.045412 0.22723 0.00140424
v 0.0454545 0.227213 0.00140424
v 0.0454971 0.22723 0.00140424
v 0.0455147 0.227273 0.00140424
v 0.0454971 0.227315 0.00140424
v 0.0454971 0.227315 0.0001
v 0.0455147 0.227273 0.0001
v 0.0454971 0.22723 0.0001
v 0.0454545 0.227213 0.0001
v 0.045412 0.22723 0.0001
v 0.0453943 0.227273 0.0001
v 0.045412 0.227315 0.0001
v 0.0454545 0.227333 0.0001
v 0.0454545 0.227273 0.00210653
v 0.0454545 0.227072 0.00140424
v 0.0455964 0.227131 0.00140424
v 0.0456552 0.227273 0.00140424
v 0.0455964 0.227415 0.00140424
v 0.0454545 0.227473 0.00140424
v 0.0453127 0.227415 0.00140424
v 0.0452539 0.227273 0.00140424
v 0.0453127 0.227131 0.00140424

g grp93
usemtl mtl93
f 93 94 96 95 
f 95 96 98 97 
f 97 98 100 99 
f 99 100 102 101 
f 101 102 104 103 
f 103 104 106 105 
f 105 106 108 107 
f 107 108 94 93 
f 109 110 111 112 113 114 115 116 
f 117 118 119 120 121 122 123 124 
f 133 132 131 130 129 128 127 126 
f 125 126 127 
f 125 127 128 
f 125 128 129 
f 125 129 130 
f 125 130 131 
f 125 131 132 
f 125 132 133 
f 125 133 126 
f 134 135 137 136 
f 136 137 139 138 
f 138 139 141 140 
f 140 141 143 142 
f 142 143 145 144 
f 144 145 147 146 
f 146 147 149 148 
f 148 149 135 134 
f 150 151 152 153 154 155 156 157 
f 158 159 160 161 162 163 164 165 
f 174 173 172 171 170 169 168 167 
f 166 167 168 
f 166 168 169 
f 166 169 170 
f 166 170 171 
f 166 171 172 
f 166 172 173 
f 166 173 174 
f 166 174 167 
v 0.0454545 0.0454575 0.000134065
v 0.0454545 0.0454575 0.000197329
v 0.0454566 0.0454566 0.000134065
v 0.0454566 0.0454566 0.000197329
v 0.0454575 0.0454545 0.000134065
v 0.0454575 0.0454545 0.000197329
v 0.0454566 0.0454525 0.000134065
v 0.0454566 0.0454525 0.000197329
v 0.0454545 0.0454516 0.000134065
v 0.0454545 0.0454516 0.000197329
v 0.0454525 0.0454525 0.000134065
v 0.0454525 0.0454525 0.000197329
v 0.0454516 0.0454545 0.000134065
v 0.0454516 0.0454545 0.000197329
v 0.0454525 0.0454566 0.000134065
v 0.0454525 0.0454566 0.000197329
v 0.0454545 0.0454575 0.000134065
v 0.0454566 0.0454566 0.000134065
v 0.0454575 0.0454545 0.000134065
v 0.0454566 0.0454525 0.000134065
v 0.0454545 0.0454516 0.000134065
v 0.0454525 0.0454525 0.000134065
v 0.0454516 0.0454545 0.000134065
v 0.0454525 0.0454566 0.000134065
v 0.0454525 0.0454566 0.000197329
v 0.0454516 0.0454545 0.000197329
v 0.0454525 0.0454525 0.000197329
v 0.0454545 0.0454516 0.000197329
v 0.0454566 0.0454525 0.000197329
v 0.0454575 0.0454545 0.000197329
v 0.0454566 0.0454566 0.000197329
v 0.0454545 0.0454575 0.000197329
v 0.0454545 0.0454545 0.0001
v 0.0454545 0.0454448 0.000134065
v 0.0454477 0.0454477 0.000134065
v 0.0454448 0.0454545 0.000134065
v 0.0454477 0.0454614 0.000134065
v 0.0454545 0.0454643 0.000134065
v 0.0454614 0.0454614 0.000134065
v 0.0454643 0.0454545 0.000134065
v 0.0454614 0.0454477 0.000134065

g grp175
usemtl mtl175
f 175 176 178 177 
f 177 178 180 179 
f 179 180 182 181 
f 181 182 184 183 
f 183 184 186 185 
f 185 186 188 187 
f 187 188 190 189 
f 189 190 176 175 
f 191 192 193 194 195 196 197 198 
f 199 200 201 202 203 204 205 206 
f 215 214 213 212 211 210 209 208 
f 207 208 209 
f 207 209 210 
f 207 210 211 
f 207 211 212 
f 207 212 213 
f 207 213 214 
f 207 214 215 
f 207 215 208 
